<?xml version="1.0" encoding="UTF-8" standalone="no"?>
<!DOCTYPE svg PUBLIC "-//W3C//DTD SVG 1.1//EN" "http://www.w3.org/Graphics/SVG/1.1/DTD/svg11.dtd">
<svg width="100%" height="100%" viewBox="0 0 512 512" version="1.1" xmlns="http://www.w3.org/2000/svg" xmlns:xlink="http://www.w3.org/1999/xlink" xml:space="preserve" style="fill-rule:evenodd;clip-rule:evenodd;stroke-linejoin:round;stroke-miterlimit:1.41421;">
    <g transform="matrix(0.784982,-0.210335,0.210335,0.784982,1.19875,108.89)">
        <path d="M464,64L48,64C21.49,64 0,85.49 0,112L0,400C0,426.51 21.49,448 48,448L464,448C490.51,448 512,426.51 512,400L512,112C512,85.49 490.51,64 464,64ZM176,144C214.66,144 246,175.34 246,214C246,252.66 214.66,284 176,284C137.34,284 106,252.66 106,214C106,175.34 137.34,144 176,144ZM288,347C288,358.598 278.598,368 267,368L85,368C73.402,368 64,358.598 64,347L64,330.793C64,311.521 77.116,294.721 95.813,290.047L127.013,282.247C152.477,300.563 192.208,305.824 224.987,282.247L256.187,290.047C274.884,294.721 288,311.52 288,330.793L288,347ZM448,308C448,314.627 442.627,320 436,320L332,320C325.373,320 320,314.627 320,308L320,300C320,293.373 325.373,288 332,288L436,288C442.627,288 448,293.373 448,300L448,308ZM448,244C448,250.627 442.627,256 436,256L332,256C325.373,256 320,250.627 320,244L320,236C320,229.373 325.373,224 332,224L436,224C442.627,224 448,229.373 448,236L448,244ZM448,180C448,186.627 442.627,192 436,192L332,192C325.373,192 320,186.627 320,180L320,172C320,165.373 325.373,160 332,160L436,160C442.627,160 448,165.373 448,172L448,180Z" style="fill:url(#_Linear1);fill-rule:nonzero;"/>
    </g>
    <g transform="matrix(0.784982,-0.210335,0.210335,0.784982,0.198746,108.89)">
        <path d="M464,64L48,64C21.49,64 0,85.49 0,112L0,400C0,426.51 21.49,448 48,448L464,448C490.51,448 512,426.51 512,400L512,112C512,85.49 490.51,64 464,64ZM176,144C214.66,144 246,175.34 246,214C246,252.66 214.66,284 176,284C137.34,284 106,252.66 106,214C106,175.34 137.34,144 176,144ZM288,347C288,358.598 278.598,368 267,368L85,368C73.402,368 64,358.598 64,347L64,330.793C64,311.521 77.116,294.721 95.813,290.047L127.013,282.247C152.477,300.563 192.208,305.824 224.987,282.247L256.187,290.047C274.884,294.721 288,311.52 288,330.793L288,347ZM448,308C448,314.627 442.627,320 436,320L332,320C325.373,320 320,314.627 320,308L320,300C320,293.373 325.373,288 332,288L436,288C442.627,288 448,293.373 448,300L448,308ZM448,244C448,250.627 442.627,256 436,256L332,256C325.373,256 320,250.627 320,244L320,236C320,229.373 325.373,224 332,224L436,224C442.627,224 448,229.373 448,236L448,244ZM448,180C448,186.627 442.627,192 436,192L332,192C325.373,192 320,186.627 320,180L320,172C320,165.373 325.373,160 332,160L436,160C442.627,160 448,165.373 448,172L448,180Z" style="fill:url(#_Radial2);fill-rule:nonzero;stroke:url(#_Linear3);stroke-width:4.92px;"/>
    </g>
    <defs>
        <linearGradient id="_Linear1" x1="0" y1="0" x2="1" y2="0" gradientUnits="userSpaceOnUse" gradientTransform="matrix(0.741656,-0.994878,0.994878,0.741656,246.992,248.374)"><stop offset="0" style="stop-color:rgb(130,197,89);stop-opacity:1"/><stop offset="1" style="stop-color:rgb(8,98,135);stop-opacity:1"/></linearGradient>
        <radialGradient id="_Radial2" cx="0" cy="0" r="1" gradientUnits="userSpaceOnUse" gradientTransform="matrix(-507.624,-279.163,387.887,-705.325,487.113,440.614)"><stop offset="0" style="stop-color:rgb(8,98,135);stop-opacity:0"/><stop offset="0.8" style="stop-color:white;stop-opacity:0.45098"/><stop offset="1" style="stop-color:white;stop-opacity:0.121569"/></radialGradient>
        <linearGradient id="_Linear3" x1="0" y1="0" x2="1" y2="0" gradientUnits="userSpaceOnUse" gradientTransform="matrix(-489.663,-365.441,365.441,-489.663,501.174,437.767)"><stop offset="0" style="stop-color:rgb(0,170,220);stop-opacity:1"/><stop offset="1" style="stop-color:black;stop-opacity:1"/></linearGradient>
    </defs>
</svg>
